<svg xmlns="http://www.w3.org/2000/svg" xmlns:xlink="http://www.w3.org/1999/xlink" width="45" zoomAndPan="magnify" viewBox="0 0 33.75 33.749998" height="45" preserveAspectRatio="xMidYMid meet" version="1.0"><defs><g/><clipPath id="7582709da3"><path d="M 0 0 L 33.5 0 L 33.5 33.5 L 0 33.5 Z M 0 0 " clip-rule="nonzero"/></clipPath><clipPath id="7ae3ec07ee"><path d="M 0 0 L 33.5 0 L 33.5 33.5 L 0 33.5 Z M 0 0 " clip-rule="nonzero"/></clipPath><clipPath id="e98fcf782b"><path d="M 2.976562 0 L 30.523438 0 C 31.3125 0 32.070312 0.3125 32.628906 0.871094 C 33.1875 1.429688 33.5 2.1875 33.5 2.976562 L 33.5 30.523438 C 33.5 31.3125 33.1875 32.070312 32.628906 32.628906 C 32.070312 33.1875 31.3125 33.5 30.523438 33.5 L 2.976562 33.5 C 2.1875 33.5 1.429688 33.1875 0.871094 32.628906 C 0.3125 32.070312 0 31.3125 0 30.523438 L 0 2.976562 C 0 2.1875 0.3125 1.429688 0.871094 0.871094 C 1.429688 0.3125 2.1875 0 2.976562 0 Z M 2.976562 0 " clip-rule="nonzero"/></clipPath><clipPath id="6b4a704b41"><path d="M 0 0 L 33.5 0 L 33.5 33.5 L 0 33.5 Z M 0 0 " clip-rule="nonzero"/></clipPath><clipPath id="9ee67d047f"><path d="M 2.976562 0 L 30.523438 0 C 31.3125 0 32.070312 0.3125 32.628906 0.871094 C 33.1875 1.429688 33.5 2.1875 33.5 2.976562 L 33.5 30.523438 C 33.5 31.3125 33.1875 32.070312 32.628906 32.628906 C 32.070312 33.1875 31.3125 33.5 30.523438 33.5 L 2.976562 33.5 C 2.1875 33.5 1.429688 33.1875 0.871094 32.628906 C 0.3125 32.070312 0 31.3125 0 30.523438 L 0 2.976562 C 0 2.1875 0.3125 1.429688 0.871094 0.871094 C 1.429688 0.3125 2.1875 0 2.976562 0 Z M 2.976562 0 " clip-rule="nonzero"/></clipPath><clipPath id="eed002dba7"><rect x="0" width="34" y="0" height="34"/></clipPath><clipPath id="c8112c575e"><path d="M 10 7.914062 L 21.101562 7.914062 L 21.101562 25.78125 L 10 25.78125 Z M 10 7.914062 " clip-rule="nonzero"/></clipPath></defs><g clip-path="url(#7582709da3)"><path fill="#ffffff" d="M 0 0 L 33.5 0 L 33.5 33.5 L 0 33.5 Z M 0 0 " fill-opacity="1" fill-rule="nonzero"/><path fill="#ffffff" d="M 0 0 L 33.5 0 L 33.5 33.5 L 0 33.5 Z M 0 0 " fill-opacity="1" fill-rule="nonzero"/></g><g clip-path="url(#7ae3ec07ee)"><g clip-path="url(#e98fcf782b)"><g transform="matrix(1, 0, 0, 1, 0, -0.000000000000001048)"><g clip-path="url(#eed002dba7)"><g clip-path="url(#6b4a704b41)"><g clip-path="url(#9ee67d047f)"><path fill="#198754" d="M 0 0 L 33.5 0 L 33.5 33.5 L 0 33.5 Z M 0 0 " fill-opacity="1" fill-rule="nonzero"/></g></g></g></g></g></g><g fill="#ffffff" fill-opacity="1"><g transform="translate(3.001207, 28.256749)"><g><path d="M 27.34375 -20.46875 L 23.359375 0 L 18 0 L 13.765625 -14.359375 L 9.484375 0 L 4.125 0 L 0.15625 -20.46875 L 5.125 -20.46875 L 7.53125 -6.359375 L 11.53125 -20.46875 L 15.953125 -20.46875 L 19.96875 -6.359375 L 22.375 -20.46875 Z M 27.34375 -20.46875 "/></g></g></g><g clip-path="url(#c8112c575e)"><path fill="#ff751f" d="M 20.828125 7.914062 L 14.511719 7.914062 C 14.4375 7.914062 14.371094 7.953125 14.335938 8.019531 L 10.289062 15.917969 C 10.257812 15.980469 10.261719 16.054688 10.296875 16.113281 C 10.335938 16.175781 10.398438 16.210938 10.46875 16.210938 L 14.679688 16.210938 L 10.0625 25.289062 C 10.015625 25.378906 10.046875 25.488281 10.128906 25.546875 C 10.164062 25.570312 10.203125 25.582031 10.242188 25.582031 C 10.296875 25.582031 10.351562 25.558594 10.390625 25.515625 L 20.75 13.992188 C 20.804688 13.933594 20.816406 13.847656 20.785156 13.777344 C 20.75 13.703125 20.679688 13.65625 20.601562 13.65625 L 16.382812 13.65625 L 20.980469 8.242188 C 21.03125 8.183594 21.042969 8.101562 21.011719 8.027344 C 20.976562 7.957031 20.90625 7.914062 20.828125 7.914062 Z M 20.828125 7.914062 " fill-opacity="1" fill-rule="nonzero"/></g></svg>